# xmcd
# 
# Track frame offsets:
#     150
#     8950
#     28187
#     34420
#     55477
#     66830
#     85890
#     92522
#     97952
#     116647
#     121627
#     150642
# 
# Disc length: 2281
# 
# Revision: 6
# Processed by: cddbd v1.5.2PL0 Copyright (c) Steve Scherf et al.
# Submitted via: fre:ac v1.0.27
# 
DISCID=9408e70c
DTITLE=Emerson Lake and Palmer - Pictures At An Exhibition
DYEAR=1972
DGENRE=Progressive Rock
TTITLE0=Promenade
TTITLE1=The Gnome
TTITLE2=Promenade
TTITLE3=The Sage
TTITLE4=The Old Castle
TTITLE5=Blues Variations
TTITLE6=Promenade
TTITLE7=The Hut Of Baba Yaga
TTITLE8=The Curse Of Baba Yaga
TTITLE9=The Hut Of Baba Yaga
TTITLE10=The Great Gates Of Kiev
TTITLE11=The Nutrocker
EXTD=
EXTT0=
EXTT1=
EXTT2=
EXTT3=
EXTT4=
EXTT5=
EXTT6=
EXTT7=
EXTT8=
EXTT9=
EXTT10=
EXTT11=
PLAYORDER=
